.
 
http://www.scenetime.com    -   SceneTime [ We been having it ] !!!


How come you press harder on a remote control when you know the battery is dead? so you better seed to get speed ;)

        Seed back for speed


...................................NFO:.................................................








































          
          
              
              
                    
                    
                    
                    

Frat.House.Massacre.2008.DVDRiP.XviD-SiC

Poster:
[img]http://leetleech.org/images/48983691504939858931.jpg[/img]

IMDB Link:
http://www.imdb.com/title/tt1015460/

Description:
Set in the late 70s, this gritty and twisted film taps the physical and mental underpinnings of the meaning of the word "brother" in a way reminiscent of the best of late 70s grindhouse and early 80s slashers.  

Mediainfo:
General
Complete name                    : Frat.House.Massacre.2008.DVDRiP.XviD-SiC.avi
Format                           : AVI
Format/Info                      : Audio Video Interleave
File size                        : 1.70 GiB
Duration                         : 1h 56mn
Overall bit rate                 : 2 091 Kbps

Video
ID                               : 0
Format                           : MPEG-4 Visual
Format profile                   : Advanced Simple@L5
Format settings, BVOP            : 1
Format settings, QPel            : No
Format settings, GMC             : No warppoints
Format settings, Matrix          : Default (H.263)
Codec ID                         : XVID
Codec ID/Hint                    : XviD
Duration                         : 1h 56mn
Bit rate                         : 1 700 Kbps
Width                            : 720 pixels
Height                           : 480 pixels
Display aspect ratio             : 16:9
Frame rate                       : 23.976 fps
Standard                         : NTSC
Color space                      : YUV
Chroma subsampling               : 4:2:0
Bit depth                        : 8 bits
Scan type                        : Progressive
Compression mode                 : Lossy
Bits/(Pixel*Frame)               : 0.205
Stream size                      : 1.38 GiB (81%)
Writing library                  : XviD 1.2.1 (UTC 2008-12-04)

Audio
ID                               : 1
Format                           : AC-3
Format/Info                      : Audio Coding 3
Mode extension                   : CM (complete main)
Codec ID                         : 2000
Duration                         : 1h 56mn
Bit rate mode                    : Constant
Bit rate                         : 384 Kbps
Channel(s)                       : 6 channels
Channel positions                : Front: L C R, Side: L R, LFE
Sampling rate                    : 48.0 KHz
Bit depth                        : 16 bits
Compression mode                 : Lossy
Stream size                      : 319 MiB (18%)
Alignment                        : Aligned on interleaves
Interleave, duration             : 64 ms (1.53 video frames)
Interleave, preload duration     : 192 ms
Title                            : VTS_01_1 T80 3_2ch 384Kbps DELAY -16ms






Screenshots:
[img]http://leetleech.org/images/77238456430647267167.png[/img]
[img]http://leetleech.org/images/47425827676136481642.png[/img]
[img]http://leetleech.org/images/78314986818191956867.png[/img]
[img]http://leetleech.org/images/35465392229410937276.png[/img]
[img]http://leetleech.org/images/03509922340056659419.png[/img]

Note: Blood and boobs EVERYWHERE! You like eighties slasher flicks? Here is a great homage to those types of films. Enjoy!

Encoder: thefuzz


Respects to CaptainHomey, Cyanide, CM8, Rx, THC, ELEKTRI4KA, Killerhz, XtremE, PA, YeFsTe and everyone in the struggle...